<svg width="200" height="36" viewBox="0 0 200 36" fill="none" xmlns="http://www.w3.org/2000/svg">
<path d="M12.2986 35.6408L3.11585 21.4233C3.03163 21.284 2.89616 21.0641 2.75703 20.7892C2.64719 20.595 2.56298 20.485 2.53735 20.375C2.4275 20.1808 2.37258 20.0452 2.26274 19.686V35.4758H0V17.2559H2.95108L11.9691 31.1399C12.0533 31.2498 12.1339 31.4184 12.2181 31.5833C12.3279 31.8582 12.3279 31.8876 12.5476 32.4117C12.5732 32.4667 12.6025 32.5766 12.6574 32.6866V17.2559H14.9202V35.6408H12.2986Z" fill="#1D1D1B"/>
<path d="M29.1227 35.8351C23.8284 35.8351 19.9656 31.8583 19.9656 26.3677C19.9656 20.8772 23.8247 16.9261 29.1227 16.9261C34.4208 16.9261 38.2506 20.9029 38.2506 26.3677C38.2506 31.8326 34.4171 35.8351 29.1227 35.8351ZM29.1227 18.9126C25.454 18.9126 22.448 22.281 22.448 26.3677C22.448 30.4545 25.454 33.8485 29.1227 33.8485C32.7915 33.8485 35.7682 30.4801 35.7682 26.3677C35.7682 22.2553 32.7622 18.9126 29.1227 18.9126Z" fill="#1D1D1B"/>
<path d="M43.296 35.4758V17.2559H45.5587V35.4758H43.296Z" fill="#1D1D1B"/>
<path d="M61.9398 35.4758L56.92 27.6615H54.4925V35.4758H52.2298V17.2559H57.7731C59.981 17.2559 61.0281 17.5858 62.0753 18.6084C62.9577 19.4624 63.5106 20.7892 63.5106 22.171C63.5106 23.5528 62.932 24.9859 61.9105 25.9535C61.1673 26.6976 60.5045 27.0311 59.1535 27.3317L64.5321 35.4758H61.9398ZM60.0908 19.686C59.5379 19.2461 59.0693 19.1618 57.4436 19.1618H54.4925V25.7593H57.4436C59.8418 25.7593 61.083 24.5461 61.083 22.1967C61.083 21.0384 60.7535 20.2101 60.0908 19.686Z" fill="#1D1D1B"/>
<path d="M81.8871 25.9279C81.283 25.5724 81.034 25.4477 80.6605 25.3231C80.2175 25.1802 79.5072 25.0739 79.0458 25.0739C77.7131 25.0739 76.8087 25.73 76.8087 26.7269C76.8087 27.5992 77.325 28.0427 79.7012 29.3036C80.4994 29.7288 81.1219 30.1209 81.5466 30.4948C82.1141 30.9749 82.4509 31.774 82.4509 32.628C82.4509 34.6365 80.9608 35.8974 78.5992 35.8974C77.801 35.8974 77.054 35.7544 76.4353 35.5052C75.9922 35.3256 75.6883 35.1496 74.9268 34.6328L75.6737 33.4783C76.3291 33.9218 76.6147 34.0831 77.0211 34.2443C77.5373 34.4423 78.1049 34.5449 78.7053 34.5449C80.0893 34.5449 80.9241 33.8888 80.9241 32.7672C80.9241 32.43 80.8729 32.1441 80.7447 31.9316C80.5507 31.576 80.2138 31.2388 79.7525 30.9713C79.5584 30.865 78.8994 30.5278 77.801 29.923C76.0435 28.981 75.2966 28.0574 75.2966 26.8479C75.2966 24.9823 76.8417 23.7397 79.1667 23.7397C79.8404 23.7397 80.5324 23.8277 81.1365 24.0256C81.6161 24.1869 81.8981 24.3262 82.5571 24.7184L81.8834 25.9279H81.8871Z" fill="#1D1D1B"/>
<path d="M93.3875 34.9187C92.5161 35.6298 91.436 36.0037 90.1728 36.0037C88.9096 36.0037 87.8112 35.6298 86.9435 34.9187C85.9659 34.1197 85.5778 33.1778 85.5778 31.6494V23.9377H87.035V31.2059C87.035 32.6646 87.1412 33.0715 87.7087 33.6946C88.2945 34.3506 89.1476 34.7062 90.1582 34.7062C91.1687 34.7062 92.0218 34.3506 92.6076 33.6946C93.1752 33.0715 93.2814 32.6646 93.2814 31.2059V23.9377H94.7349V31.6494C94.7349 33.2144 94.3615 34.1197 93.3875 34.9187Z" fill="#1D1D1B"/>
<path d="M104.979 35.6628L101.75 30.6341H100.19V35.6628H98.7368V23.9377H102.303C103.724 23.9377 104.397 24.1503 105.071 24.81C105.639 25.3598 105.994 26.2138 105.994 27.1008C105.994 27.9878 105.62 28.9114 104.965 29.5345C104.485 30.0147 104.06 30.2272 103.189 30.4215L106.649 35.6628H104.979ZM103.79 25.4991C103.434 25.2169 103.134 25.1619 102.087 25.1619H100.187V29.4099H102.087C103.632 29.4099 104.43 28.6292 104.43 27.1191C104.43 26.3714 104.218 25.8399 103.79 25.5027V25.4991Z" fill="#1D1D1B"/>
<path d="M123.751 35.4758H117.022V17.2559H122.924C124.689 17.2559 125.655 17.5601 126.563 18.3885C127.446 19.2168 127.999 20.4593 127.999 21.7275C127.999 23.6884 126.812 25.2608 124.883 25.9242C127.31 26.3934 128.687 28.105 128.687 30.6194C128.687 33.5186 126.703 35.4795 123.751 35.4795V35.4758ZM124.854 19.8253C124.385 19.3268 123.806 19.1618 122.4 19.1618H119.285V25.0702H122.236C123.532 25.0702 124.11 24.876 124.718 24.2712C125.271 23.7177 125.6 22.8637 125.6 21.9254C125.6 21.0421 125.326 20.2944 124.857 19.8289L124.854 19.8253ZM122.397 27.1411H119.281V33.5736H122.397C124.052 33.5736 124.685 33.4086 125.319 32.8845C125.897 32.386 126.285 31.4221 126.285 30.4545C126.285 28.3286 124.879 27.1411 122.397 27.1411Z" fill="#1D1D1B"/>
<path d="M133.981 35.4758V17.2559H136.244V33.5699H144.38V35.4758H133.985H133.981Z" fill="#1D1D1B"/>
<path d="M159.047 35.4759L157.173 30.0916H149.81L147.935 35.4759H145.507L152.292 16.7318H154.72L161.475 35.4759H159.047ZM153.504 19.686L150.527 28.0244H156.455L153.504 19.686Z" fill="#1D1D1B"/>
<path d="M177.662 35.6408L168.479 21.4233C168.395 21.284 168.259 21.0641 168.12 20.7892C168.01 20.595 167.926 20.485 167.901 20.375C167.791 20.1808 167.736 20.0452 167.626 19.686V35.4758H165.363V17.2559H168.314L177.332 31.1399C177.417 31.2498 177.501 31.4184 177.581 31.5833C177.691 31.8582 177.691 31.8876 177.911 32.4117C177.936 32.4667 177.966 32.5766 178.021 32.6866V17.2559H180.283V35.6408H177.665H177.662Z" fill="#1D1D1B"/>
<path d="M198.872 20.3751C197.492 19.4075 196.17 18.9933 194.405 18.9933C190.543 18.9933 187.786 21.9731 187.786 26.1442C187.786 30.7257 190.572 33.7349 194.845 33.7349C196.39 33.7349 197.576 33.4856 199.037 32.8809L199.67 34.6475C198.568 35.146 198.125 35.3109 197.214 35.5309C196.306 35.7508 195.559 35.8351 194.706 35.8351C189.217 35.8351 185.329 31.8876 185.329 26.2834C185.329 20.6793 189.272 16.9261 194.486 16.9261C195.672 16.9261 196.829 17.146 197.906 17.5345C198.704 17.8387 199.092 18.033 200.004 18.6671L198.872 20.3787V20.3751Z" fill="#1D1D1B"/>
<path d="M0.0366135 12.6085V2.617H1.27783V11.5639H5.7374V12.6085H0.0366135Z" fill="#1D1D1B"/>
<path d="M18.1056 12.6085V2.617H23.7148V3.6616H19.3431V6.9933H22.9569V8.0379H19.3431V11.5639H23.8503V12.6085H18.1056Z" fill="#1D1D1B"/>
<path d="M41.879 4.31396C41.3664 4.00975 41.1541 3.90346 40.8355 3.80083C40.4584 3.67988 39.8543 3.58824 39.4588 3.58824C38.3238 3.58824 37.5549 4.14903 37.5549 4.9957C37.5549 5.73608 37.9943 6.11726 40.019 7.19118C40.7001 7.55404 41.2273 7.88757 41.5934 8.20645C42.0767 8.61696 42.366 9.29502 42.366 10.0244C42.366 11.7361 41.0955 12.81 39.0854 12.81C38.4044 12.81 37.7709 12.689 37.24 12.4765C36.8629 12.3262 36.6066 12.1722 35.9549 11.7361L36.5883 10.7538C37.1485 11.1313 37.3902 11.2669 37.738 11.4062C38.1774 11.5711 38.6607 11.6628 39.1733 11.6628C40.3522 11.6628 41.0625 11.102 41.0625 10.149C41.0625 9.85947 41.0186 9.61757 40.9124 9.43797C40.7477 9.13375 40.4584 8.84787 40.0666 8.62062C39.9019 8.52899 39.3417 8.2431 38.4044 7.7263C36.9069 6.92361 36.2734 6.13559 36.2734 5.10932C36.2734 3.5186 37.5879 2.45935 39.5687 2.45935C40.1435 2.45935 40.733 2.53632 41.2456 2.70126C41.652 2.83687 41.8973 2.95782 42.4539 3.29136L41.879 4.32129V4.31396Z" fill="#1D1D1B"/>
<path d="M61.1197 12.6084V2.61698H66.7289V3.66158H62.3572V6.99328H65.971V8.03787H62.3572V11.5638H66.8644V12.6084H61.1197ZM64.7042 1.78497H63.646C63.192 2.36042 64.6602 0.527795 65.0813 0H66.4104L64.7005 1.78497H64.7042Z" fill="#1D1D1B"/>
<path d="M86.8556 11.157C85.9476 12.2016 84.9041 12.6085 83.1649 12.6085H79.855V2.617H83.1832C86.1013 2.617 88.203 4.69153 88.203 7.56508C88.203 8.86624 87.7197 10.1674 86.8556 11.1534V11.157ZM82.9855 3.6616H81.0962V11.5639H82.9855C84.2999 11.5639 85.0432 11.3073 85.6766 10.6549C86.4016 9.88151 86.8995 8.64266 86.8995 7.55042C86.8995 5.32562 85.2373 3.6616 82.9818 3.6616H82.9855Z" fill="#1D1D1B"/>
<path d="M101.19 12.6085V2.617H102.431V12.6085H101.19Z" fill="#1D1D1B"/>
<path d="M119.35 3.6616V12.6085H118.109V3.6616H114.781V2.617H122.675V3.6616H119.347H119.35Z" fill="#1D1D1B"/>
<path d="M135.047 12.6085V2.617H136.288V12.6085H135.047Z" fill="#1D1D1B"/>
<path d="M154.298 12.8063C151.395 12.8063 149.279 10.6255 149.279 7.6127C149.279 4.59987 151.395 2.43738 154.298 2.43738C157.202 2.43738 159.304 4.6182 159.304 7.6127C159.304 10.6072 157.202 12.8063 154.298 12.8063ZM154.298 3.52595C152.288 3.52595 150.641 5.37324 150.641 7.6127C150.641 9.85216 152.288 11.7141 154.298 11.7141C156.309 11.7141 157.942 9.86682 157.942 7.6127C157.942 5.35858 156.294 3.52595 154.298 3.52595Z" fill="#1D1D1B"/>
<path d="M179.035 12.7001L174 4.90411C173.957 4.82715 173.88 4.70619 173.803 4.55592C173.744 4.44963 173.697 4.39098 173.682 4.32867C173.623 4.22238 173.59 4.14541 173.532 3.95115V12.6085H172.291V2.617H173.909L178.852 10.2297C178.896 10.292 178.943 10.38 178.987 10.4716C179.046 10.6219 179.046 10.6366 179.17 10.9261C179.185 10.9554 179.2 11.0177 179.229 11.0764V2.617H180.47V12.7001H179.035Z" fill="#1D1D1B"/>
<path d="M199.389 4.31396C198.876 4.00975 198.664 3.90346 198.345 3.80083C197.968 3.67988 197.364 3.58824 196.968 3.58824C195.833 3.58824 195.064 4.14903 195.064 4.9957C195.064 5.73608 195.504 6.11726 197.529 7.19118C198.21 7.55404 198.737 7.88757 199.099 8.20645C199.583 8.61696 199.872 9.29502 199.872 10.0244C199.872 11.7361 198.601 12.81 196.591 12.81C195.91 12.81 195.277 12.689 194.746 12.4765C194.369 12.3262 194.112 12.1722 193.461 11.7361L194.094 10.7538C194.654 11.1313 194.896 11.2669 195.244 11.4062C195.683 11.5711 196.167 11.6628 196.679 11.6628C197.858 11.6628 198.568 11.102 198.568 10.149C198.568 9.85947 198.524 9.61757 198.418 9.43797C198.254 9.13375 197.964 8.84787 197.572 8.62062C197.404 8.52899 196.848 8.2431 195.91 7.7263C194.413 6.92361 193.779 6.13559 193.779 5.10932C193.779 3.5186 195.094 2.45935 197.075 2.45935C197.649 2.45935 198.239 2.53632 198.751 2.70126C199.162 2.83687 199.403 2.95782 199.96 3.29136L199.385 4.32129L199.389 4.31396Z" fill="#1D1D1B"/>
</svg>
